<svg xmlns="http://www.w3.org/2000/svg" xmlns:xlink="http://www.w3.org/1999/xlink" xmlns:lucid="lucid" width="663" height="1864"><g transform="translate(181 901)" lucid:page-tab-id="0_0"><path d="M208-880c17.67 0 32 17.9 32 40s-14.33 40-32 40h-96c-17.67 0-32-17.9-32-40s14.33-40 32-40z" stroke="#000" stroke-opacity="0" stroke-width="2" fill="#d2d3d5"/><use xlink:href="#a" transform="matrix(1,0,0,1,85,-875) translate(48.99722222222223 39.420833333333334)"/><path d="M80-714a6 6 0 0 1 6-6h148a6 6 0 0 1 6 6v108a6 6 0 0 1-6 6H86a6 6 0 0 1-6-6z" stroke="#282c33" stroke-width="2" fill="#e3fae3"/><use xlink:href="#b" transform="matrix(1,0,0,1,92,-708) translate(34.8641975308642 52.55555555555556)"/><path d="M160-799.5v62.12" stroke="#3a414a" fill="none"/><path d="M160.47-799.5h-.94v-.5h.94z" stroke="#3a414a" stroke-width=".05" fill="#3a414a"/><path d="M160-722.62l-4.63-14.26h9.26z" stroke="#3a414a" fill="#3a414a"/><path d="M155.06-496.6a8.73 8.73 0 0 1 9.88 0l150.12 103.2a4.13 4.13 0 0 1 0 6.8L164.94-283.4a8.73 8.73 0 0 1-9.88 0L4.94-386.6a4.13 4.13 0 0 1 0-6.8z" stroke="#282c33" stroke-width="2" fill="#fff"/><use xlink:href="#c" transform="matrix(1,0,0,1,5,-495) translate(42.22722222222223 109.65277777777777)"/><use xlink:href="#d" transform="matrix(1,0,0,1,5,-495) translate(166.67166666666665 109.65277777777777)"/><use xlink:href="#e" transform="matrix(1,0,0,1,5,-495) translate(188.83216049382713 109.65277777777777)"/><path d="M160-598.5v82.98" stroke="#3a414a" fill="none"/><path d="M160.47-598.5h-.94v-.5h.94z" stroke="#3a414a" stroke-width=".05" fill="#3a414a"/><path d="M160-500.76l-4.63-14.26h9.26z" stroke="#3a414a" fill="#3a414a"/><path d="M-80 392a12 12 0 0 1 12-12h436a12 12 0 0 1 12 12v516a12 12 0 0 1-12 12H-68a12 12 0 0 1-12-12z" stroke="#dfe3e8" stroke-width="2" fill="#fe7070"/><path d="M35.6 520.37c0 13.68-11.1 24.77-24.77 24.77-13.7 0-24.77-11.1-24.77-24.77 0-13.68 11.08-24.77 24.77-24.77 13.68 0 24.77 11.1 24.77 24.77z" stroke="#000" stroke-opacity=".25" fill="#e81313"/><path d="M35.6 586.42c0 13.68-11.1 24.77-24.77 24.77-13.7 0-24.77-11.1-24.77-24.78 0-13.68 11.08-24.77 24.77-24.77 13.68 0 24.77 11.1 24.77 24.77z" stroke="#000" stroke-opacity=".25" fill="#1071e5"/><path d="M35.6 652.48c0 13.68-11.1 24.77-24.77 24.77-13.7 0-24.77-11.1-24.77-24.77 0-13.68 11.08-24.77 24.77-24.77 13.68 0 24.77 11.1 24.77 24.78z" stroke="#000" stroke-opacity=".25" fill="#54c45e"/><path d="M35.6 718.53c0 13.68-11.1 24.77-24.77 24.77-13.7 0-24.77-11.1-24.77-24.77 0-13.68 11.08-24.77 24.77-24.77 13.68 0 24.77 11.1 24.77 24.77z" stroke="#000" stroke-opacity=".25" fill="#d916a8"/><path d="M35.6 784.6c0 13.67-11.1 24.76-24.77 24.76-13.7 0-24.77-11.1-24.77-24.77 0-13.7 11.08-24.78 24.77-24.78 13.68 0 24.77 11.1 24.77 24.77z" stroke="#000" stroke-opacity=".25" fill="#fcce14"/><path d="M35.6 850.64c0 13.68-11.1 24.77-24.77 24.77-13.7 0-24.77-11.08-24.77-24.76 0-13.68 11.08-24.77 24.77-24.77 13.68 0 24.77 11.1 24.77 24.77z" stroke="#000" stroke-opacity=".25" fill="#282c33"/><use xlink:href="#f" transform="matrix(1,0,0,1,-13.944954128440372,429.5412844036697) translate(0 29.417867435158506)"/><use xlink:href="#g" transform="matrix(1,0,0,1,60.36697247706422,627.7064220183486) translate(0 29.417867435158506)"/><use xlink:href="#h" transform="matrix(1,0,0,1,60.36697247706422,627.7064220183486) translate(65.37303874479669 29.417867435158506)"/><use xlink:href="#i" transform="matrix(1,0,0,1,60.36697247706422,627.7064220183486) translate(90.00064040986233 29.417867435158506)"/><use xlink:href="#j" transform="matrix(1,0,0,1,60.36697247706422,627.7064220183486) translate(131.59141850784505 29.417867435158506)"/><use xlink:href="#k" transform="matrix(1,0,0,1,60.36697247706422,693.7614678899082) translate(0 29.417867435158506)"/><use xlink:href="#l" transform="matrix(1,0,0,1,60.36697247706422,693.7614678899082) translate(65.37303874479667 29.417867435158506)"/><use xlink:href="#m" transform="matrix(1,0,0,1,60.36697247706422,693.7614678899082) translate(114.85366634646175 29.417867435158506)"/><use xlink:href="#n" transform="matrix(1,0,0,1,60.36697247706422,693.7614678899082) translate(193.6394492475184 29.417867435158506)"/><use xlink:href="#o" transform="matrix(1,0,0,1,60.36697247706422,759.8165137614678) translate(0 29.417867435158506)"/><use xlink:href="#p" transform="matrix(1,0,0,1,60.36697247706422,759.8165137614678) translate(65.37303874479667 29.417867435158506)"/><use xlink:href="#q" transform="matrix(1,0,0,1,60.36697247706422,759.8165137614678) translate(119.4185078450208 29.417867435158506)"/><use xlink:href="#r" transform="matrix(1,0,0,1,60.36697247706422,825.8715596330275) translate(0 29.417867435158506)"/><use xlink:href="#s" transform="matrix(1,0,0,1,60.36697247706422,825.8715596330275) translate(65.37303874479667 29.417867435158506)"/><use xlink:href="#t" transform="matrix(1,0,0,1,60.36697247706422,825.8715596330275) translate(149.85078450208135 29.417867435158506)"/><use xlink:href="#u" transform="matrix(1,0,0,1,60.36697247706422,561.651376146789) translate(0 29.417867435158506)"/><use xlink:href="#h" transform="matrix(1,0,0,1,60.36697247706422,561.651376146789) translate(65.37303874479669 29.417867435158506)"/><use xlink:href="#i" transform="matrix(1,0,0,1,60.36697247706422,561.651376146789) translate(90.00064040986233 29.417867435158506)"/><use xlink:href="#v" transform="matrix(1,0,0,1,60.36697247706422,561.651376146789) translate(131.59141850784505 29.417867435158506)"/><use xlink:href="#w" transform="matrix(1,0,0,1,60.36697247706422,495.5963302752293) translate(0 29.417867435158506)"/><use xlink:href="#h" transform="matrix(1,0,0,1,60.36697247706422,495.5963302752293) translate(65.37303874479669 29.417867435158506)"/><use xlink:href="#i" transform="matrix(1,0,0,1,60.36697247706422,495.5963302752293) translate(90.00064040986233 29.417867435158506)"/><use xlink:href="#x" transform="matrix(1,0,0,1,60.36697247706422,495.5963302752293) translate(131.59141850784505 29.417867435158506)"/><path d="M-160-294a6 6 0 0 1 6-6H-6a6 6 0 0 1 6 6v88a6 6 0 0 1-6 6h-148a6 6 0 0 1-6-6z" stroke="#282c33" stroke-width="2" fill="#e3fae3"/><use xlink:href="#y" transform="matrix(1,0,0,1,-148,-288) translate(30.962962962962962 41.52777777777778)"/><path d="M155.2-56.4a8 8 0 0 1 9.6 0l70.4 52.8a4.5 4.5 0 0 1 0 7.2l-70.4 52.8a8 8 0 0 1-9.6 0L84.8 3.6a4.5 4.5 0 0 1 0-7.2z" stroke="#282c33" stroke-width="2" fill="#fff"/><use xlink:href="#z" transform="matrix(1,0,0,1,85,-55) translate(38.2766049382716 59.02777777777778)"/><path d="M1.65-390H-74a6 6 0 0 0-6 6v66.62" stroke="#54c45e" fill="none"/><path d="M2.15-390l.05.48h-.56v-.96h.56z" stroke="#54c45e" stroke-width=".05" fill="#54c45e"/><path d="M-80-302.62l-4.64-14.26h9.28z" stroke="#54c45e" fill="#54c45e"/><path d="M-80-198.5v93.5a6 6 0 0 0 6 6h228a6 6 0 0 1 6 6v17.6" stroke="#3a414a" fill="none"/><path d="M-79.53-198.5h-.94v-.5h.94z" stroke="#3a414a" stroke-width=".05" fill="#3a414a"/><path d="M160-60.62l-4.63-14.27h9.26z" stroke="#3a414a" fill="#3a414a"/><path d="M318.35-390H394a6 6 0 0 1 6 6v279a6 6 0 0 1-6 6H166a6 6 0 0 0-6 6v17.6" stroke="#e81313" fill="none"/><path d="M318.36-389.52h-.56l.05-.48-.05-.48h.56z" stroke="#e81313" stroke-width=".05" fill="#e81313"/><path d="M160-60.62l-4.63-14.27h9.26z" stroke="#e81313" fill="#e81313"/><path d="M-60 86a6 6 0 0 1 6-6H54a6 6 0 0 1 6 6v68a6 6 0 0 1-6 6H-54a6 6 0 0 1-6-6z" stroke="#282c33" stroke-width="2" fill="#e3fae3"/><g><use xlink:href="#A" transform="matrix(1,0,0,1,-48,92) translate(2.0123456790123413 31.77777777777778)"/><use xlink:href="#B" transform="matrix(1,0,0,1,-48,92) translate(8.18518518518518 31.77777777777778)"/><use xlink:href="#C" transform="matrix(1,0,0,1,-48,92) translate(62.50617283950617 31.77777777777778)"/><use xlink:href="#D" transform="matrix(1,0,0,1,-48,92) translate(81.64197530864197 31.77777777777778)"/></g><path d="M81.5 0H6a6 6 0 0 0-6 6v56.62" stroke="#54c45e" fill="none"/><path d="M82 0l.04.47h-.56v-.94h.56z" stroke="#54c45e" stroke-width=".05" fill="#54c45e"/><path d="M0 77.38l-4.63-14.26h9.27z" stroke="#54c45e" fill="#54c45e"/><path d="M0 161.5V264a6 6 0 0 0 6 6h148a6 6 0 0 1 6 6v81.6a.4.4 0 0 0 .4.4.4.4 0 0 1 .4.4v4.22" stroke="#3a414a" fill="none"/><path d="M.47 161.5h-.94v-.5h.94z" stroke="#3a414a" stroke-width=".05" fill="#3a414a"/><path d="M160.8 377.38l-4.64-14.26h9.27z" stroke="#3a414a" fill="#3a414a"/><path d="M238.5 0h73.35a6 6 0 0 1 6 6v258a6 6 0 0 1-6 6H166a6 6 0 0 0-6 6v62.6a.4.4 0 0 0 .4.4.4.4 0 0 1 .4.4v23.22" stroke="#e81313" fill="none"/><path d="M238.52.47h-.56L238 0l-.04-.47h.56z" stroke="#e81313" stroke-width=".05" fill="#e81313"/><path d="M160.8 377.38l-4.64-14.26h9.27z" stroke="#e81313" fill="#e81313"/><path d="M163.5 921.5V955a6 6 0 0 0 6 6H474a6 6 0 0 0 6-6V-556a6 6 0 0 0-6-6H176.38" stroke="#3a414a" fill="none"/><path d="M163.97 921.5h-.95v-.5h.95z" stroke="#3a414a" stroke-width=".05" fill="#3a414a"/><path d="M161.62-562l14.26-4.63v9.26z" stroke="#3a414a" fill="#3a414a"/><defs><path fill="#3a414a" d="M185-189c-5-48-123-54-124 2 14 75 158 14 163 119 3 78-121 87-175 55-17-10-28-26-33-46l33-7c5 56 141 63 141-1 0-78-155-14-162-118-5-82 145-84 179-34 5 7 8 16 11 25" id="E"/><path fill="#3a414a" d="M59-47c-2 24 18 29 38 22v24C64 9 27 4 27-40v-127H5v-23h24l9-43h21v43h35v23H59v120" id="F"/><path fill="#3a414a" d="M141-36C126-15 110 5 73 4 37 3 15-17 15-53c-1-64 63-63 125-63 3-35-9-54-41-54-24 1-41 7-42 31l-33-3c5-37 33-52 76-52 45 0 72 20 72 64v82c-1 20 7 32 28 27v20c-31 9-61-2-59-35zM48-53c0 20 12 33 32 33 41-3 63-29 60-74-43 2-92-5-92 41" id="G"/><path fill="#3a414a" d="M114-163C36-179 61-72 57 0H25l-1-190h30c1 12-1 29 2 39 6-27 23-49 58-41v29" id="H"/><g id="a"><use transform="matrix(0.0685185185185185,0,0,0.0685185185185185,0,0)" xlink:href="#E"/><use transform="matrix(0.0685185185185185,0,0,0.0685185185185185,16.444444444444443,0)" xlink:href="#F"/><use transform="matrix(0.0685185185185185,0,0,0.0685185185185185,23.29629629629629,0)" xlink:href="#G"/><use transform="matrix(0.0685185185185185,0,0,0.0685185185185185,36.99999999999999,0)" xlink:href="#H"/><use transform="matrix(0.0685185185185185,0,0,0.0685185185185185,45.1537037037037,0)" xlink:href="#F"/></g><path fill="#3a414a" d="M25-224v-37h50v37H25zM25 0v-190h50V0H25" id="I"/><path fill="#3a414a" d="M135-194c87-1 58 113 63 194h-50c-7-57 23-157-34-157-59 0-34 97-39 157H25l-1-190h47c2 12-1 28 3 38 12-26 28-41 61-42" id="J"/><path fill="#3a414a" d="M-4 44V30h207v14H-4" id="K"/><path fill="#3a414a" d="M115-3C79 11 28 4 28-45v-112H4v-33h27l15-45h31v45h36v33H77v99c-1 23 16 31 38 25v30" id="L"/><path fill="#3a414a" d="M67-93c0 74 22 123 53 168H70C40 30 18-18 18-93s22-123 52-168h50c-32 44-53 94-53 168" id="M"/><path fill="#3a414a" d="M102-93c0 74-22 123-52 168H0C30 29 54-18 53-93c0-74-22-123-53-168h50c30 45 52 94 52 168" id="N"/><g id="b"><use transform="matrix(0.06790123456790123,0,0,0.06790123456790123,0,0)" xlink:href="#I"/><use transform="matrix(0.06790123456790123,0,0,0.06790123456790123,6.790123456790123,0)" xlink:href="#J"/><use transform="matrix(0.06790123456790123,0,0,0.06790123456790123,21.660493827160494,0)" xlink:href="#K"/><use transform="matrix(0.06790123456790123,0,0,0.06790123456790123,35.24074074074074,0)" xlink:href="#I"/><use transform="matrix(0.06790123456790123,0,0,0.06790123456790123,42.03086419753086,0)" xlink:href="#L"/><use transform="matrix(0.06790123456790123,0,0,0.06790123456790123,50.11111111111111,0)" xlink:href="#M"/><use transform="matrix(0.06790123456790123,0,0,0.06790123456790123,58.191358024691354,0)" xlink:href="#N"/></g><path fill="#3a414a" d="M232-93c-1 65-40 97-104 97C67 4 28-28 28-90v-158h33c8 89-33 224 67 224 102 0 64-133 71-224h33v155" id="O"/><path fill="#3a414a" d="M30 0v-248h187v28H63v79h144v27H63v87h162V0H30" id="P"/><path fill="#3a414a" d="M233-177c-1 41-23 64-60 70L243 0h-38l-65-103H63V0H30v-248c88 3 205-21 203 71zM63-129c60-2 137 13 137-47 0-61-80-42-137-45v92" id="Q"/><path fill="#3a414a" d="M-5 72V49h209v23H-5" id="R"/><path fill="#3a414a" d="M160-131c35 5 61 23 61 61C221 17 115-2 30 0v-248c76 3 177-17 177 60 0 33-19 50-47 57zm-97-11c50-1 110 9 110-42 0-47-63-36-110-37v79zm0 115c55-2 124 14 124-45 0-56-70-42-124-44v89" id="S"/><path fill="#3a414a" d="M127-220V0H93v-220H8v-28h204v28h-85" id="T"/><path fill="#3a414a" d="M190 0L58-211 59 0H30v-248h39L202-35l-2-213h31V0h-41" id="U"/><g id="c"><use transform="matrix(0.06172839506172839,0,0,0.06172839506172839,0,0)" xlink:href="#O"/><use transform="matrix(0.06172839506172839,0,0,0.06172839506172839,15.987654320987653,0)" xlink:href="#E"/><use transform="matrix(0.06172839506172839,0,0,0.06172839506172839,30.80246913580247,0)" xlink:href="#P"/><use transform="matrix(0.06172839506172839,0,0,0.06172839506172839,45.61728395061728,0)" xlink:href="#Q"/><use transform="matrix(0.06172839506172839,0,0,0.06172839506172839,61.60493827160493,0)" xlink:href="#R"/><use transform="matrix(0.06172839506172839,0,0,0.06172839506172839,73.9506172839506,0)" xlink:href="#S"/><use transform="matrix(0.06172839506172839,0,0,0.06172839506172839,88.76543209876542,0)" xlink:href="#T"/><use transform="matrix(0.06172839506172839,0,0,0.06172839506172839,102.28395061728394,0)" xlink:href="#U"/></g><path fill="#3a414a" d="M24-231v-30h32v30H24zM24 0v-190h32V0H24" id="V"/><path fill="#3a414a" d="M135-143c-3-34-86-38-87 0 15 53 115 12 119 90S17 21 10-45l28-5c4 36 97 45 98 0-10-56-113-15-118-90-4-57 82-63 122-42 12 7 21 19 24 35" id="W"/><g id="d"><use transform="matrix(0.06172839506172839,0,0,0.06172839506172839,0,0)" xlink:href="#V"/><use transform="matrix(0.06172839506172839,0,0,0.06172839506172839,4.876543209876543,0)" xlink:href="#W"/></g><path fill="#3a414a" d="M115-194c55 1 70 41 70 98S169 2 115 4C84 4 66-9 55-30l1 105H24l-1-265h31l2 30c10-21 28-34 59-34zm-8 174c40 0 45-34 45-75s-6-73-45-74c-42 0-51 32-51 76 0 43 10 73 51 73" id="X"/><path fill="#3a414a" d="M100-194c63 0 86 42 84 106H49c0 40 14 67 53 68 26 1 43-12 49-29l28 8c-11 28-37 45-77 45C44 4 14-33 15-96c1-61 26-98 85-98zm52 81c6-60-76-77-97-28-3 7-6 17-6 28h103" id="Y"/><path fill="#3a414a" d="M85-194c31 0 48 13 60 33l-1-100h32l1 261h-30c-2-10 0-23-3-31C134-8 116 4 85 4 32 4 16-35 15-94c0-66 23-100 70-100zm9 24c-40 0-46 34-46 75 0 40 6 74 45 74 42 0 51-32 51-76 0-42-9-74-50-73" id="Z"/><g id="e"><use transform="matrix(0.06172839506172839,0,0,0.06172839506172839,0,0)" xlink:href="#X"/><use transform="matrix(0.06172839506172839,0,0,0.06172839506172839,12.345679012345679,0)" xlink:href="#H"/><use transform="matrix(0.06172839506172839,0,0,0.06172839506172839,19.691358024691358,0)" xlink:href="#Y"/><use transform="matrix(0.06172839506172839,0,0,0.06172839506172839,32.03703703703704,0)" xlink:href="#W"/><use transform="matrix(0.06172839506172839,0,0,0.06172839506172839,43.14814814814815,0)" xlink:href="#W"/><use transform="matrix(0.06172839506172839,0,0,0.06172839506172839,54.25925925925927,0)" xlink:href="#Y"/><use transform="matrix(0.06172839506172839,0,0,0.06172839506172839,66.60493827160495,0)" xlink:href="#Z"/></g><path d="M169-182c-1-43-94-46-97-3 18 66 151 10 154 114 3 95-165 93-204 36-6-8-10-19-12-30l50-8c3 46 112 56 116 5-17-69-150-10-154-114-4-87 153-88 188-35 5 8 8 18 10 28" id="aa"/><path d="M231 0h-52l-39-155L100 0H48L-1-190h46L77-45c9-52 24-97 36-145h53l37 145 32-145h46" id="ab"/><path d="M25-224v-37h50v37H25zM25 0v-190h50V0H25" id="ac"/><path d="M115-3C79 11 28 4 28-45v-112H4v-33h27l15-45h31v45h36v33H77v99c-1 23 16 31 38 25v30" id="ad"/><path d="M190-63c-7 42-38 67-86 67-59 0-84-38-90-98-12-110 154-137 174-36l-49 2c-2-19-15-32-35-32-30 0-35 28-38 64-6 74 65 87 74 30" id="ae"/><path d="M114-157C55-157 80-60 75 0H25v-261h50l-1 109c12-26 28-41 61-42 86-1 58 113 63 194h-50c-7-57 23-157-34-157" id="af"/><g id="f"><use transform="matrix(0.05635606788344542,0,0,0.05635606788344542,0,0)" xlink:href="#aa"/><use transform="matrix(0.05635606788344542,0,0,0.05635606788344542,13.525456292026899,0)" xlink:href="#ab"/><use transform="matrix(0.05635606788344542,0,0,0.05635606788344542,29.30515529939162,0)" xlink:href="#ac"/><use transform="matrix(0.05635606788344542,0,0,0.05635606788344542,34.94076208773616,0)" xlink:href="#ad"/><use transform="matrix(0.05635606788344542,0,0,0.05635606788344542,41.64713416586616,0)" xlink:href="#ae"/><use transform="matrix(0.05635606788344542,0,0,0.05635606788344542,52.91834774255525,0)" xlink:href="#af"/></g><path d="M96-169c-40 0-48 33-48 73s9 75 48 75c24 0 41-14 43-38l32 2c-6 37-31 61-74 61-59 0-76-41-82-99-10-93 101-131 147-64 4 7 5 14 7 22l-32 3c-4-21-16-35-41-35" id="ag"/><path d="M141-36C126-15 110 5 73 4 37 3 15-17 15-53c-1-64 63-63 125-63 3-35-9-54-41-54-24 1-41 7-42 31l-33-3c5-37 33-52 76-52 45 0 72 20 72 64v82c-1 20 7 32 28 27v20c-31 9-61-2-59-35zM48-53c0 20 12 33 32 33 41-3 63-29 60-74-43 2-92-5-92 41" id="ah"/><path d="M135-143c-3-34-86-38-87 0 15 53 115 12 119 90S17 21 10-45l28-5c4 36 97 45 98 0-10-56-113-15-118-90-4-57 82-63 122-42 12 7 21 19 24 35" id="ai"/><path d="M100-194c63 0 86 42 84 106H49c0 40 14 67 53 68 26 1 43-12 49-29l28 8c-11 28-37 45-77 45C44 4 14-33 15-96c1-61 26-98 85-98zm52 81c6-60-76-77-97-28-3 7-6 17-6 28h103" id="aj"/><path d="M101-251c82-7 93 87 43 132L82-64C71-53 59-42 53-27h129V0H18c2-99 128-94 128-182 0-28-16-43-45-43s-46 15-49 41l-32-3c6-41 34-60 81-64" id="ak"/><path d="M33-154v-36h34v36H33zM33 0v-36h34V0H33" id="al"/><g id="g"><use transform="matrix(0.05635606788344542,0,0,0.05635606788344542,0,0)" xlink:href="#ag"/><use transform="matrix(0.05635606788344542,0,0,0.05635606788344542,10.144092219020175,0)" xlink:href="#ah"/><use transform="matrix(0.05635606788344542,0,0,0.05635606788344542,21.41530579570926,0)" xlink:href="#ai"/><use transform="matrix(0.05635606788344542,0,0,0.05635606788344542,31.55939801472943,0)" xlink:href="#aj"/><use transform="matrix(0.05635606788344542,0,0,0.05635606788344542,42.83061159141852,0)" xlink:href="#ak"/><use transform="matrix(0.05635606788344542,0,0,0.05635606788344542,54.101825168107595,0)" xlink:href="#al"/></g><path d="M101-234c-31-9-42 10-38 44h38v23H63V0H32v-167H5v-23h27c-7-52 17-82 69-68v24" id="am"/><path d="M24-231v-30h32v30H24zM24 0v-190h32V0H24" id="an"/><path d="M24 0v-261h32V0H24" id="ao"/><g id="h"><use transform="matrix(0.05635606788344542,0,0,0.05635606788344542,0,0)" xlink:href="#am"/><use transform="matrix(0.05635606788344542,0,0,0.05635606788344542,5.635606788344542,0)" xlink:href="#an"/><use transform="matrix(0.05635606788344542,0,0,0.05635606788344542,10.08773615113673,0)" xlink:href="#ao"/><use transform="matrix(0.05635606788344542,0,0,0.05635606788344542,14.539865513928918,0)" xlink:href="#ao"/></g><path d="M206 0h-36l-40-164L89 0H53L-1-190h32L70-26l43-164h34l41 164 42-164h31" id="ap"/><path d="M59-47c-2 24 18 29 38 22v24C64 9 27 4 27-40v-127H5v-23h24l9-43h21v43h35v23H59v120" id="aq"/><path d="M106-169C34-169 62-67 57 0H25v-261h32l-1 103c12-21 28-36 61-36 89 0 53 116 60 194h-32v-121c2-32-8-49-39-48" id="ar"/><g id="i"><use transform="matrix(0.05635606788344542,0,0,0.05635606788344542,0,0)" xlink:href="#ap"/><use transform="matrix(0.05635606788344542,0,0,0.05635606788344542,14.596221581812364,0)" xlink:href="#an"/><use transform="matrix(0.05635606788344542,0,0,0.05635606788344542,19.048350944604554,0)" xlink:href="#aq"/><use transform="matrix(0.05635606788344542,0,0,0.05635606788344542,24.683957732949093,0)" xlink:href="#ar"/></g><path d="M177-190C167-65 218 103 67 71c-23-6-38-20-44-43l32-5c15 47 100 32 89-28v-30C133-14 115 1 83 1 29 1 15-40 15-95c0-56 16-97 71-98 29-1 48 16 59 35 1-10 0-23 2-32h30zM94-22c36 0 50-32 50-73 0-42-14-75-50-75-39 0-46 34-46 75s6 73 46 73" id="as"/><path d="M114-163C36-179 61-72 57 0H25l-1-190h30c1 12-1 29 2 39 6-27 23-49 58-41v29" id="at"/><path d="M117-194c89-4 53 116 60 194h-32v-121c0-31-8-49-39-48C34-167 62-67 57 0H25l-1-190h30c1 10-1 24 2 32 11-22 29-35 61-36" id="au"/><g id="j"><use transform="matrix(0.05635606788344542,0,0,0.05635606788344542,0,0)" xlink:href="#as"/><use transform="matrix(0.05635606788344542,0,0,0.05635606788344542,11.271213576689084,0)" xlink:href="#at"/><use transform="matrix(0.05635606788344542,0,0,0.05635606788344542,17.977585654819087,0)" xlink:href="#aj"/><use transform="matrix(0.05635606788344542,0,0,0.05635606788344542,29.248799231508173,0)" xlink:href="#aj"/><use transform="matrix(0.05635606788344542,0,0,0.05635606788344542,40.52001280819726,0)" xlink:href="#au"/></g><path d="M126-127c33 6 58 20 58 59 0 88-139 92-164 29-3-8-5-16-6-25l32-3c6 27 21 44 54 44 32 0 52-15 52-46 0-38-36-46-79-43v-28c39 1 72-4 72-42 0-27-17-43-46-43-28 0-47 15-49 41l-32-3c6-42 35-63 81-64 48-1 79 21 79 65 0 36-21 52-52 59" id="av"/><g id="k"><use transform="matrix(0.05635606788344541,0,0,0.05635606788344541,0,0)" xlink:href="#ag"/><use transform="matrix(0.05635606788344541,0,0,0.05635606788344541,10.144092219020173,0)" xlink:href="#ah"/><use transform="matrix(0.05635606788344541,0,0,0.05635606788344541,21.41530579570926,0)" xlink:href="#ai"/><use transform="matrix(0.05635606788344541,0,0,0.05635606788344541,31.559398014729428,0)" xlink:href="#aj"/><use transform="matrix(0.05635606788344541,0,0,0.05635606788344541,42.83061159141852,0)" xlink:href="#av"/><use transform="matrix(0.05635606788344541,0,0,0.05635606788344541,54.101825168107595,0)" xlink:href="#al"/></g><path d="M100-194c62-1 85 37 85 99 1 63-27 99-86 99S16-35 15-95c0-66 28-99 85-99zM99-20c44 1 53-31 53-75 0-43-8-75-51-75s-53 32-53 75 10 74 51 75" id="aw"/><g id="l"><use transform="matrix(0.05635606788344541,0,0,0.05635606788344541,0,0)" xlink:href="#ag"/><use transform="matrix(0.05635606788344541,0,0,0.05635606788344541,10.144092219020173,0)" xlink:href="#aw"/><use transform="matrix(0.05635606788344541,0,0,0.05635606788344541,21.41530579570926,0)" xlink:href="#ao"/><use transform="matrix(0.05635606788344541,0,0,0.05635606788344541,25.867435158501447,0)" xlink:href="#aw"/><use transform="matrix(0.05635606788344541,0,0,0.05635606788344541,37.13864873519053,0)" xlink:href="#at"/></g><path d="M85-194c31 0 48 13 60 33l-1-100h32l1 261h-30c-2-10 0-23-3-31C134-8 116 4 85 4 32 4 16-35 15-94c0-66 23-100 70-100zm9 24c-40 0-46 34-46 75 0 40 6 74 45 74 42 0 51-32 51-76 0-42-9-74-50-73" id="ax"/><g id="m"><use transform="matrix(0.05635606788344541,0,0,0.05635606788344541,0,0)" xlink:href="#as"/><use transform="matrix(0.05635606788344541,0,0,0.05635606788344541,11.271213576689082,0)" xlink:href="#at"/><use transform="matrix(0.05635606788344541,0,0,0.05635606788344541,17.977585654819084,0)" xlink:href="#ah"/><use transform="matrix(0.05635606788344541,0,0,0.05635606788344541,29.24879923150817,0)" xlink:href="#ax"/><use transform="matrix(0.05635606788344541,0,0,0.05635606788344541,40.52001280819725,0)" xlink:href="#an"/><use transform="matrix(0.05635606788344541,0,0,0.05635606788344541,44.97214217098944,0)" xlink:href="#aj"/><use transform="matrix(0.05635606788344541,0,0,0.05635606788344541,56.24335574767852,0)" xlink:href="#au"/><use transform="matrix(0.05635606788344541,0,0,0.05635606788344541,67.5145693243676,0)" xlink:href="#aq"/></g><g id="n"><use transform="matrix(0.05635606788344541,0,0,0.05635606788344541,0,0)" xlink:href="#aj"/><use transform="matrix(0.05635606788344541,0,0,0.05635606788344541,11.271213576689082,0)" xlink:href="#am"/><use transform="matrix(0.05635606788344541,0,0,0.05635606788344541,16.512327889849505,0)" xlink:href="#am"/><use transform="matrix(0.05635606788344541,0,0,0.05635606788344541,22.147934678194048,0)" xlink:href="#aj"/><use transform="matrix(0.05635606788344541,0,0,0.05635606788344541,33.419148254883126,0)" xlink:href="#ag"/><use transform="matrix(0.05635606788344541,0,0,0.05635606788344541,43.5632404739033,0)" xlink:href="#aq"/></g><path d="M155-56V0h-30v-56H8v-25l114-167h33v167h35v25h-35zm-30-156c-27 46-58 90-88 131h88v-131" id="ay"/><g id="o"><use transform="matrix(0.05635606788344541,0,0,0.05635606788344541,0,0)" xlink:href="#ag"/><use transform="matrix(0.05635606788344541,0,0,0.05635606788344541,10.144092219020173,0)" xlink:href="#ah"/><use transform="matrix(0.05635606788344541,0,0,0.05635606788344541,21.41530579570926,0)" xlink:href="#ai"/><use transform="matrix(0.05635606788344541,0,0,0.05635606788344541,31.559398014729428,0)" xlink:href="#aj"/><use transform="matrix(0.05635606788344541,0,0,0.05635606788344541,42.83061159141852,0)" xlink:href="#ay"/><use transform="matrix(0.05635606788344541,0,0,0.05635606788344541,54.101825168107595,0)" xlink:href="#al"/></g><g id="p"><use transform="matrix(0.05635606788344541,0,0,0.05635606788344541,0,0)" xlink:href="#ag"/><use transform="matrix(0.05635606788344541,0,0,0.05635606788344541,10.144092219020173,0)" xlink:href="#at"/><use transform="matrix(0.05635606788344541,0,0,0.05635606788344541,16.85046429715018,0)" xlink:href="#aw"/><use transform="matrix(0.05635606788344541,0,0,0.05635606788344541,28.12167787383926,0)" xlink:href="#ai"/><use transform="matrix(0.05635606788344541,0,0,0.05635606788344541,38.265770092859434,0)" xlink:href="#ai"/></g><path d="M210-169c-67 3-38 105-44 169h-31v-121c0-29-5-50-35-48C34-165 62-65 56 0H25l-1-190h30c1 10-1 24 2 32 10-44 99-50 107 0 11-21 27-35 58-36 85-2 47 119 55 194h-31v-121c0-29-5-49-35-48" id="az"/><g id="q"><use transform="matrix(0.05635606788344541,0,0,0.05635606788344541,0,0)" xlink:href="#ah"/><use transform="matrix(0.05635606788344541,0,0,0.05635606788344541,11.271213576689082,0)" xlink:href="#au"/><use transform="matrix(0.05635606788344541,0,0,0.05635606788344541,22.542427153378163,0)" xlink:href="#an"/><use transform="matrix(0.05635606788344541,0,0,0.05635606788344541,26.99455651617035,0)" xlink:href="#az"/><use transform="matrix(0.05635606788344541,0,0,0.05635606788344541,43.845020813320524,0)" xlink:href="#ah"/><use transform="matrix(0.05635606788344541,0,0,0.05635606788344541,55.11623439000961,0)" xlink:href="#aq"/><use transform="matrix(0.05635606788344541,0,0,0.05635606788344541,60.751841178354155,0)" xlink:href="#an"/><use transform="matrix(0.05635606788344541,0,0,0.05635606788344541,65.20397054114633,0)" xlink:href="#aw"/><use transform="matrix(0.05635606788344541,0,0,0.05635606788344541,76.47518411783541,0)" xlink:href="#au"/></g><path d="M54-142c48-35 137-8 131 61C196 18 31 33 14-55l32-4c7 23 22 37 52 37 35-1 51-22 54-58 4-55-73-65-99-34H22l8-134h141v27H59" id="aA"/><g id="r"><use transform="matrix(0.05635606788344541,0,0,0.05635606788344541,0,0)" xlink:href="#ag"/><use transform="matrix(0.05635606788344541,0,0,0.05635606788344541,10.144092219020173,0)" xlink:href="#ah"/><use transform="matrix(0.05635606788344541,0,0,0.05635606788344541,21.41530579570926,0)" xlink:href="#ai"/><use transform="matrix(0.05635606788344541,0,0,0.05635606788344541,31.559398014729428,0)" xlink:href="#aj"/><use transform="matrix(0.05635606788344541,0,0,0.05635606788344541,42.83061159141852,0)" xlink:href="#aA"/><use transform="matrix(0.05635606788344541,0,0,0.05635606788344541,54.101825168107595,0)" xlink:href="#al"/></g><path d="M179-190L93 31C79 59 56 82 12 73V49c39 6 53-20 64-50L1-190h34L92-34l54-156h33" id="aB"/><g id="s"><use transform="matrix(0.05635606788344541,0,0,0.05635606788344541,0,0)" xlink:href="#ag"/><use transform="matrix(0.05635606788344541,0,0,0.05635606788344541,10.144092219020173,0)" xlink:href="#aw"/><use transform="matrix(0.05635606788344541,0,0,0.05635606788344541,21.41530579570926,0)" xlink:href="#au"/><use transform="matrix(0.05635606788344541,0,0,0.05635606788344541,32.686519372398344,0)" xlink:href="#ap"/><use transform="matrix(0.05635606788344541,0,0,0.05635606788344541,47.2827409542107,0)" xlink:href="#ah"/><use transform="matrix(0.05635606788344541,0,0,0.05635606788344541,58.553954530899794,0)" xlink:href="#aB"/><use transform="matrix(0.05635606788344541,0,0,0.05635606788344541,68.69804674991995,0)" xlink:href="#ai"/></g><path d="M143 4C61 4 22-44 18-125c-5-107 100-154 193-111 17 8 29 25 37 43l-32 9c-13-25-37-40-76-40-61 0-88 39-88 99 0 61 29 100 91 101 35 0 62-11 79-27v-45h-74v-28h105v86C228-13 192 4 143 4" id="aC"/><path d="M30 0v-248h33v221h125V0H30" id="aD"/><g id="t"><use transform="matrix(0.05635606788344541,0,0,0.05635606788344541,0,0)" xlink:href="#aC"/><use transform="matrix(0.05635606788344541,0,0,0.05635606788344541,15.779699007364714,0)" xlink:href="#aw"/><use transform="matrix(0.05635606788344541,0,0,0.05635606788344541,27.050912584053798,0)" xlink:href="#aD"/></g><path d="M27 0v-27h64v-190l-56 39v-29l58-41h29v221h61V0H27" id="aE"/><g id="u"><use transform="matrix(0.05635606788344542,0,0,0.05635606788344542,0,0)" xlink:href="#ag"/><use transform="matrix(0.05635606788344542,0,0,0.05635606788344542,10.144092219020175,0)" xlink:href="#ah"/><use transform="matrix(0.05635606788344542,0,0,0.05635606788344542,21.41530579570926,0)" xlink:href="#ai"/><use transform="matrix(0.05635606788344542,0,0,0.05635606788344542,31.55939801472943,0)" xlink:href="#aj"/><use transform="matrix(0.05635606788344542,0,0,0.05635606788344542,42.83061159141852,0)" xlink:href="#aE"/><use transform="matrix(0.05635606788344542,0,0,0.05635606788344542,54.101825168107595,0)" xlink:href="#al"/></g><path d="M115-194c53 0 69 39 70 98 0 66-23 100-70 100C84 3 66-7 56-30L54 0H23l1-261h32v101c10-23 28-34 59-34zm-8 174c40 0 45-34 45-75 0-40-5-75-45-74-42 0-51 32-51 76 0 43 10 73 51 73" id="aF"/><path d="M84 4C-5 8 30-112 23-190h32v120c0 31 7 50 39 49 72-2 45-101 50-169h31l1 190h-30c-1-10 1-25-2-33-11 22-28 36-60 37" id="aG"/><g id="v"><use transform="matrix(0.05635606788344542,0,0,0.05635606788344542,0,0)" xlink:href="#aF"/><use transform="matrix(0.05635606788344542,0,0,0.05635606788344542,11.271213576689084,0)" xlink:href="#ao"/><use transform="matrix(0.05635606788344542,0,0,0.05635606788344542,15.723342939481272,0)" xlink:href="#aG"/><use transform="matrix(0.05635606788344542,0,0,0.05635606788344542,26.994556516170352,0)" xlink:href="#aj"/></g><path d="M101-251c68 0 85 55 85 127S166 4 100 4C33 4 14-52 14-124c0-73 17-127 87-127zm-1 229c47 0 54-49 54-102s-4-102-53-102c-51 0-55 48-55 102 0 53 5 102 54 102" id="aH"/><g id="w"><use transform="matrix(0.05635606788344542,0,0,0.05635606788344542,0,0)" xlink:href="#ag"/><use transform="matrix(0.05635606788344542,0,0,0.05635606788344542,10.144092219020175,0)" xlink:href="#ah"/><use transform="matrix(0.05635606788344542,0,0,0.05635606788344542,21.41530579570926,0)" xlink:href="#ai"/><use transform="matrix(0.05635606788344542,0,0,0.05635606788344542,31.55939801472943,0)" xlink:href="#aj"/><use transform="matrix(0.05635606788344542,0,0,0.05635606788344542,42.83061159141852,0)" xlink:href="#aH"/><use transform="matrix(0.05635606788344542,0,0,0.05635606788344542,54.101825168107595,0)" xlink:href="#al"/></g><g id="x"><use transform="matrix(0.05635606788344542,0,0,0.05635606788344542,0,0)" xlink:href="#at"/><use transform="matrix(0.05635606788344542,0,0,0.05635606788344542,6.706372078130005,0)" xlink:href="#aj"/><use transform="matrix(0.05635606788344542,0,0,0.05635606788344542,17.977585654819087,0)" xlink:href="#ax"/></g><path fill="#3a414a" d="M118-107v75H92v-75H18v-26h74v-75h26v75h74v26h-74" id="aI"/><g id="y"><use transform="matrix(0.06172839506172839,0,0,0.06172839506172839,0,0)" xlink:href="#W"/><use transform="matrix(0.06172839506172839,0,0,0.06172839506172839,11.11111111111111,0)" xlink:href="#F"/><use transform="matrix(0.06172839506172839,0,0,0.06172839506172839,17.28395061728395,0)" xlink:href="#G"/><use transform="matrix(0.06172839506172839,0,0,0.06172839506172839,29.629629629629626,0)" xlink:href="#F"/><use transform="matrix(0.06172839506172839,0,0,0.06172839506172839,35.80246913580247,0)" xlink:href="#Y"/><use transform="matrix(0.06172839506172839,0,0,0.06172839506172839,48.148148148148145,0)" xlink:href="#aI"/><use transform="matrix(0.06172839506172839,0,0,0.06172839506172839,61.11111111111111,0)" xlink:href="#aI"/></g><path fill="#3a414a" d="M18-27v-27l151-64-151-65v-27l175 74v36" id="aJ"/><path fill="#3a414a" d="M54-142c48-35 137-8 131 61C196 18 31 33 14-55l32-4c7 23 22 37 52 37 35-1 51-22 54-58 4-55-73-65-99-34H22l8-134h141v27H59" id="aK"/><g id="z"><use transform="matrix(0.06172839506172839,0,0,0.06172839506172839,0,0)" xlink:href="#W"/><use transform="matrix(0.06172839506172839,0,0,0.06172839506172839,11.11111111111111,0)" xlink:href="#F"/><use transform="matrix(0.06172839506172839,0,0,0.06172839506172839,17.28395061728395,0)" xlink:href="#G"/><use transform="matrix(0.06172839506172839,0,0,0.06172839506172839,29.629629629629626,0)" xlink:href="#F"/><use transform="matrix(0.06172839506172839,0,0,0.06172839506172839,35.80246913580247,0)" xlink:href="#Y"/><use transform="matrix(0.06172839506172839,0,0,0.06172839506172839,48.148148148148145,0)" xlink:href="#aJ"/><use transform="matrix(0.06172839506172839,0,0,0.06172839506172839,61.11111111111111,0)" xlink:href="#aK"/></g><g id="B"><use transform="matrix(0.06172839506172839,0,0,0.06172839506172839,0,0)" xlink:href="#W"/><use transform="matrix(0.06172839506172839,0,0,0.06172839506172839,11.11111111111111,0)" xlink:href="#F"/><use transform="matrix(0.06172839506172839,0,0,0.06172839506172839,17.28395061728395,0)" xlink:href="#G"/><use transform="matrix(0.06172839506172839,0,0,0.06172839506172839,29.629629629629626,0)" xlink:href="#F"/><use transform="matrix(0.06172839506172839,0,0,0.06172839506172839,35.80246913580247,0)" xlink:href="#Y"/></g><path fill="#3a414a" d="M18-150v-26h174v26H18zm0 90v-26h174v26H18" id="aL"/><use transform="matrix(0.06172839506172839,0,0,0.06172839506172839,0,0)" xlink:href="#aL" id="C"/><path fill="#3a414a" d="M101-251c68 0 85 55 85 127S166 4 100 4C33 4 14-52 14-124c0-73 17-127 87-127zm-1 229c47 0 54-49 54-102s-4-102-53-102c-51 0-55 48-55 102 0 53 5 102 54 102" id="aM"/><use transform="matrix(0.06172839506172839,0,0,0.06172839506172839,0,0)" xlink:href="#aM" id="D"/></defs></g></svg>